  0
SECTION
  2
HEADER
  9
$ACADVER
  1
AC1009
  9
$INSBASE
 10
0.0
 20
0.0
 30
0.0
  9
$EXTMIN
 10
0.0
 20
0.0
 30
0.0
  9
$EXTMAX
 10
0.0
 20
0.0
 30
0.0
  0
ENDSEC
  0
SECTION
  2
TABLES
  0
TABLE
  2
VPORT
 70
0
  0
ENDTAB
  0
TABLE
  2
LTYPE
 70
1
  0
LTYPE
  2
CONTINUOUS
 70
0
  3
Solid line
 72
65
 73
0
 40
0.0
  0
ENDTAB
  0
TABLE
  2
LAYER
 70
1
  0
LAYER
  2
0
 70
64
 62
7
  6
continuous
  0
ENDTAB
  0
TABLE
  2
STYLE
 70
1
  0
STYLE
  2
STANDARD
 70
0
 40
0
 41
1.0
 50
0.0
 71
0
 42
1
 3
ARIAL.TTF
 4

  0
ENDTAB
  0
TABLE
  2
VIEW
 70
0
  0
ENDTAB
  0
ENDSEC
  0
SECTION
  2
BLOCKS
  0
BLOCK
  8
0
  2
SKETCH
 70
0
 10
0.0
 20
0.0
 30
0.0
  3
SKETCH
  0
CIRCLE
  8
0
 62
7
 10
-825.206
 20
-396.374
 30
0.0
 40
330.2
  0
POLYLINE
  8
0
 62
7
 70
0
 66
1
 10
0.0
 20
0.0
 30
0.0
  0
VERTEX
  8
0
 10
-825.206
 20
-396.374
 30
0.0
  0
VERTEX
  8
0
 10
-743.912
 20
-317.292
 30
0.0
  0
VERTEX
  8
0
 10
-563.454
 20
75.86959999999999
 30
0.0
  0
VERTEX
  8
0
 10
-540.780212
 20
140.019989
 30
0.0
  0
SEQEND
  8
0
  0
POLYLINE
  8
0
 62
7
 70
0
 66
1
 10
0.0
 20
0.0
 30
0.0
  0
VERTEX
  8
0
 10
-606.592582
 20
-18.11589203056219
 30
0.0
  0
VERTEX
  8
0
 10
-213.25900000000001
 20
-417.228
 30
0.0
  0
VERTEX
  8
0
 10
367.16499999999996
 20
-436.769
 30
0.0
  0
VERTEX
  8
0
 10
474.699
 20
-424.568
 30
0.0
  0
VERTEX
  8
0
 10
509.307
 20
-433.22
 30
0.0
  0
VERTEX
  8
0
 10
826.098
 20
-439.975
 30
0.0
  0
VERTEX
  8
0
 10
882.067505
 20
-431.520081
 30
0.0
  0
VERTEX
  8
0
 10
865.476929
 20
-381.195221
 30
0.0
  0
VERTEX
  8
0
 10
527.778809
 20
-46.703171
 30
0.0
  0
VERTEX
  8
0
 10
454.5826720000001
 20
-210.31185900000003
 30
0.0
  0
VERTEX
  8
0
 10
-579.6788964111448
 20
40.52062
 30
0.0
  0
SEQEND
  8
0
  0
CIRCLE
  8
0
 62
7
 10
376.476
 20
-412.1268815328978
 30
0.0
 40
23.43531
  0
CIRCLE
  8
0
 62
7
 10
882.067505
 20
-431.520081
 30
0.0
 40
330.2
  0
CIRCLE
  8
0
 62
7
 10
-203.12848293901368
 20
-394.1204741356123
 30
0.0
 40
23.43531
  0
POLYLINE
  8
0
 62
7
 70
0
 66
1
 10
0.0
 20
0.0
 30
0.0
  0
VERTEX
  8
0
 10
-189.374235
 20
-375.1459011910573
 30
0.0
  0
VERTEX
  8
0
 10
-12.84390000000002
 20
107.97000000000003
 30
0.0
  0
VERTEX
  8
0
 10
-131.730716
 20
159.97439464263783
 30
0.0
  0
VERTEX
  8
0
 10
-130.069184
 20
171.49504700000003
 30
0.0
 42
-0.37285691877175764
  0
VERTEX
  8
0
 10
-112.527771
 20
186.6880933806513
 30
0.0
  0
VERTEX
  8
0
 10
88.958054
 20
186.68809338065128
 30
0.0
 42
-0.44419231571156015
  0
VERTEX
  8
0
 10
114.01858
 20
158.952233
 30
0.0
  0
VERTEX
  8
0
 10
112.636
 20
145.345
 30
0.0
  0
VERTEX
  8
0
 10
-12.84390000000002
 20
107.97000000000003
 30
0.0
  0
SEQEND
  8
0
  0
POLYLINE
  8
0
 62
7
 70
0
 66
1
 10
0.0
 20
0.0
 30
0.0
  0
VERTEX
  8
0
 10
-38.28735489423566
 20
38.33812828433891
 30
0.0
  0
VERTEX
  8
0
 10
26.055397999999997
 20
38.33812828433891
 30
0.0
  0
VERTEX
  8
0
 10
-14.340999999999998
 20
158.21699999999998
 30
0.0
 42
-0.41820672925515945
  0
VERTEX
  8
0
 10
14.094800000000006
 20
214.59
 30
0.0
  0
VERTEX
  8
0
 10
130.332
 20
252.005
 30
0.0
  0
SEQEND
  8
0
  0
POLYLINE
  8
0
 62
7
 70
0
 66
1
 10
0.0
 20
0.0
 30
0.0
  0
VERTEX
  8
0
 10
-517.609
 20
267.831
 30
0.0
  0
VERTEX
  8
0
 10
-673.898
 20
270.063
 30
0.0
 42
0.7139706611565271
  0
VERTEX
  8
0
 10
-691.015
 20
222.43199999999996
 30
0.0
  0
VERTEX
  8
0
 10
-619.31016
 20
164.95413368286688
 30
0.0
  0
VERTEX
  8
0
 10
-590.841797
 20
157.744659
 30
0.0
  0
VERTEX
  8
0
 10
-547.074355
 20
122.21212549383927
 30
0.0
  0
SEQEND
  8
0
  0
POLYLINE
  8
0
 62
7
 70
0
 66
1
 10
0.0
 20
0.0
 30
0.0
  0
VERTEX
  8
0
 10
-203.12848293901368
 20
-394.1204741356123
 30
0.0
  0
VERTEX
  8
0
 10
-319.827916
 20
-292.5137148083315
 30
0.0
  0
SEQEND
  8
0
  0
POLYLINE
  8
0
 62
7
 70
0
 66
1
 10
0.0
 20
0.0
 30
0.0
  0
VERTEX
  8
0
 10
-355.91242600000004
 20
-292.5137148083316
 30
0.0
  0
VERTEX
  8
0
 10
-283.743406
 20
-292.5137148083316
 30
0.0
  0
SEQEND
  8
0
  0
POLYLINE
  8
0
 62
7
 70
0
 66
1
 10
0.0
 20
0.0
 30
0.0
  0
VERTEX
  8
0
 10
376.476
 20
-412.1268815328978
 30
0.0
  0
VERTEX
  8
0
 10
254.22948300000002
 20
-317.2665615929128
 30
0.0
  0
SEQEND
  8
0
  0
POLYLINE
  8
0
 62
7
 70
0
 66
1
 10
0.0
 20
0.0
 30
0.0
  0
VERTEX
  8
0
 10
218.144973
 20
-317.266561592913
 30
0.0
  0
VERTEX
  8
0
 10
290.313993
 20
-317.266561592913
 30
0.0
  0
SEQEND
  8
0
  0
LINE
  8
0
 62
7
 10
454.5826720000001
 20
-210.311859
 30
0.0
 11
527.778809
 21
-46.703171
 31
0.0
  0
LINE
  8
0
 62
7
 10
-579.6788964111448
 20
40.52062
 30
0.0
 11
454.5826720000001
 21
-210.311859
 31
0.0
  0
LINE
  8
0
 62
7
 10
882.067505
 20
-431.520081
 30
0.0
 11
842.803101
 21
-405.528107
 31
0.0
  0
LINE
  8
0
 62
7
 10
842.803101
 20
-405.528107
 30
0.0
 11
454.5826720000001
 21
-210.311859
 31
0.0
  0
LINE
  8
0
 62
7
 10
454.5826720000001
 20
-210.311859
 30
0.0
 11
375.596004
 21
-388.7080992879542
 31
0.0
  0
LINE
  8
0
 62
7
 10
527.778809
 20
-46.703171
 30
0.0
 11
562.020996
 21
31.839996
 31
0.0
  0
LINE
  8
0
 62
7
 10
562.020996
 20
31.839996
 30
0.0
 11
454.636
 21
73.62710000000001
 31
0.0
  0
ARC
  8
0
 62
7
 10
461.49549731195384
 20
91.25471763548317
 30
0.0
 40
18.915221565593647
 50
94.15700648852427
 51
-111.26268070750365
  0
LINE
  8
0
 62
7
 10
460.1243364301556
 20
110.12017614334154
 30
0.0
 11
675.8160354301556
 21
125.79687014334152
 31
0.0
  0
ARC
  8
0
 62
7
 10
677.0639150091532
 20
108.62760814579269
 30
0.0
 40
17.21455085049139
 50
7.350442172510474
 51
94.15700648852423
  0
LINE
  8
0
 62
7
 10
694.137
 20
110.83
 30
0.0
 11
698.74408
 21
75.115616
 31
0.0
  0
LINE
  8
0
 62
7
 10
698.74408
 20
75.115616
 30
0.0
 11
645.903687
 21
45.346355
 31
0.0
  0
LINE
  8
0
 62
7
 10
645.903687
 20
45.346355
 30
0.0
 11
562.020996
 21
31.839996
 31
0.0
  0
ARC
  8
0
 62
7
 10
-112.527771
 20
168.96518860998526
 30
0.0
 40
17.722904770666045
 50
90.0
 51
171.79327347190974
  0
ARC
  8
0
 62
7
 10
88.958054
 20
161.4985392208959
 30
0.0
 40
25.18955415975537
 50
-5.801699057880572
 51
89.99999999999993
  0
ARC
  8
0
 62
7
 10
27.682250550462474
 20
172.37786029335248
 30
0.0
 40
44.34505103249732
 50
107.84258336274127
 51
-161.37737749583405
  0
LINE
  8
0
 62
7
 10
130.332
 20
252.005
 30
0.0
 11
14.094800000000006
 21
214.59
 31
0.0
  0
LINE
  8
0
 62
7
 10
-619.31016
 20
164.95413368286688
 30
0.0
 11
-691.015
 21
222.43199999999996
 31
0.0
  0
LINE
  8
0
 62
7
 10
-673.898
 20
270.063
 30
0.0
 11
-517.609
 21
267.831
 31
0.0
  0
ENDBLK
  0
ENDSEC
  0
SECTION
  2
ENTITIES
  0
INSERT
  2
SKETCH
  8
0
 62
7
 10
0.0
 20
0.0
 30
0.0
  0
ENDSEC
  0
EOF
